Coordinates
version=1
nRows=27
nColumns=12
inDegrees=yes

Units are S.I. units (second, meters, Newtons, ...)
Angles are in degrees

endheader
time	SC_y	SC_z	SC_x	AC_y	AC_z	AC_x	GH_y	GH_z	GH_yy	EL_x	PS_y
       0.0              -15.28          17.87          69.67           32.5          9.486          3.822         -5.449         -17.75          117.4          57.61          51.61
   0.01073              -15.29          17.87          69.66           32.5          9.486          3.819         -5.459         -17.74          117.4          57.61          51.62
   0.02146              -15.29          17.87          69.66           32.5          9.486          3.816          -5.47         -17.74          117.4          57.61          51.64
   0.03219               -15.3          17.87          69.66           32.5          9.486          3.812         -5.482         -17.73          117.4          57.61          51.66
   0.04292               -15.3          17.86          69.66           32.5          9.486          3.808         -5.494         -17.73          117.4          57.61          51.67
   0.05365              -15.31          17.86          69.65           32.5          9.486          3.804         -5.507         -17.72          117.4          57.62          51.69
   0.06438              -15.31          17.86          69.65           32.5          9.486            3.8         -5.521         -17.71          117.4          57.62          51.71
   0.07511              -15.32          17.86          69.64           32.5          9.486          3.795         -5.536          -17.7          117.4          57.62          51.74
   0.08584              -15.33          17.85          69.64           32.5          9.485           3.79         -5.552         -17.69          117.4          57.62          51.76
   0.09657              -15.33          17.85          69.64           32.5          9.485          3.784         -5.569         -17.69          117.4          57.62          51.79
    0.1073              -15.34          17.85          69.63           32.5          9.485          3.778         -5.588         -17.68          117.4          57.62          51.82
     0.118              -15.35          17.84          69.63           32.5          9.485          3.772         -5.608         -17.66          117.4          57.62          51.84
    0.1288              -15.36          17.84          69.62          32.51          9.485          3.765         -5.629         -17.65          117.3          57.63          51.88
    0.1395              -15.37          17.83          69.61          32.51          9.484          3.758         -5.652         -17.64          117.3          57.63          51.91
    0.1502              -15.38          17.83          69.61          32.51          9.484           3.75         -5.677         -17.63          117.3          57.63          51.95
     0.161              -15.39          17.82           69.6          32.51          9.484          3.742         -5.704         -17.61          117.3          57.63          51.99
    0.1717              -15.41          17.82          69.59          32.51          9.484          3.732         -5.734          -17.6          117.3          57.64          52.03
    0.1824              -15.42          17.81          69.58          32.51          9.483          3.722         -5.766         -17.58          117.3          57.64          52.08
    0.1931              -15.44           17.8          69.57          32.51          9.483          3.711         -5.801         -17.56          117.3          57.64          52.14
    0.2039              -15.46           17.8          69.56          32.51          9.483          3.699         -5.839         -17.54          117.2          57.64          52.19
    0.2146              -15.47          17.79          69.55          32.51          9.482          3.686         -5.881         -17.52          117.2          57.65          52.26
    0.2253              -15.49          17.78          69.54          32.51          9.482          3.671         -5.928          -17.5          117.2          57.65          52.33
    0.2361              -15.52          17.77          69.53          32.51          9.481          3.655         -5.979         -17.47          117.2          57.66           52.4
    0.2468              -15.54          17.76          69.51          32.51          9.481          3.637         -6.036         -17.44          117.1          57.66          52.49
    0.2575              -15.57          17.74           69.5          32.51           9.48          3.617         -6.099          -17.4          117.1          57.67          52.58
    0.2683               -15.6          17.73          69.48          32.51          9.479          3.595         -6.169         -17.37          117.1          57.67          52.69
     0.279              -15.64          17.71          69.46          32.51          9.479           3.57         -6.248         -17.33          117.0          57.68          52.81
